<mxfile host="app.diagrams.net" modified="2024-01-29T21:08:30.694Z" agent="Mozilla/5.0 (Macintosh; Intel Mac OS X 10_15_7) AppleWebKit/605.1.15 (KHTML, like Gecko) Version/17.2.1 Safari/605.1.15" version="23.0.2" etag="8lHX9l0tKwbZpD1yrLN1" type="github">
  <diagram name="Page-1" id="GMx2pfHjqwFNYTrPUMSa">
    <mxGraphModel>
      <root>
        <mxCell id="0" />
        <mxCell id="1" parent="0" />
      </root>
    </mxGraphModel>
  </diagram>
</mxfile>
